<svg version="1.1" id="Layer_1" xmlns="http://www.w3.org/2000/svg" xmlns:xlink="http://www.w3.org/1999/xlink" x="0" y="0" width="250.072" height="250" xml:space="preserve"><defs><path id="SVGID_1_" d="M0 0h250.072v250H0z"/></defs><clipPath id="SVGID_2_"><use xlink:href="#SVGID_1_" overflow="visible"/></clipPath><path d="M30.327 0h189.392c16.736 0 30.304 15.377 30.304 34.345v181.31c0 18.968-13.567 34.345-30.304 34.345H30.327C13.59 250 .022 234.623.022 215.655V34.345C.022 15.377 13.59 0 30.327 0" clip-path="url(#SVGID_2_)" fill="#008033"/><path d="M187.924 47.813c-4.479-.049-8.96 1.46-12.496 4.209s-6.104 6.72-7.16 11.072c-12.838 52.867-47.466 75.528-81.5 87.407-34.034 11.878-64.938 10.468-64.938 10.468a20.836 20.836 0 00-1 0H.013c-.029 15.354 0 18.785 0 40H20.83v-.03c2.643.118 38.55 1.474 79.125-12.688 38.778-13.535 83.136-43.446 102.657-100.438 32.341.107 47.417 0 47.417 0 .05-18.882.073-19.493-.021-40 0 0-37.761.249-62.084 0z" clip-path="url(#SVGID_2_)" fill="#fff"/></svg>